<?xml version="1.0" encoding="UTF-8"?>
<svg xmlns="http://www.w3.org/2000/svg" xmlns:xlink="http://www.w3.org/1999/xlink" width="16px" height="16px" viewBox="0 0 16 16" version="1.1">
  <style>
      @media (prefers-color-scheme: dark) {
    :root {
      fill: rgba(0 127 12 / 1);
    }
  }
  </style>
<g id="surface1">
<path style=" stroke:none;fill-rule:nonzero;fill-opacity:1;" d="M 8 8 L 10 8 L 10 10 L 8 10 Z M 8 8 "/>
<path style=" stroke:none;fill-rule:nonzero;fill-opacity:1;" d="M 6 8 L 6 6 L 8 6 L 8 8 Z M 6 8 "/>
<path style=" stroke:none;fill-rule:nonzero;fill-opacity:1;" d="M 6 8 L 6 10 L 4 10 L 4 8 Z M 6 8 "/>
<path style=" stroke:none;fill-rule:nonzero;fill-opacity:1;" d="M 12 4 L 10 4 L 10 6 L 12 6 Z M 12 4 "/>
<path style=" stroke:none;fill-rule:evenodd;fill-opacity:1;" d="M 0 0 L 0 16 L 16 16 L 16 0 Z M 14 14 L 10 14 L 10 12 L 12 12 L 12 10 L 14 10 Z M 10 10 L 12 10 L 12 8 L 14 8 L 14 2 L 2 2 L 2 10 L 4 10 L 4 12 L 2 12 L 2 14 L 8 14 L 8 12 L 10 12 Z M 10 10 "/>
</g>
</svg>